<svg id="ad007141-136e-4e70-8fb7-dc16ee7fd7b4" data-name="Layer 1" xmlns="http://www.w3.org/2000/svg" viewBox="0 0 566.9291 308.2804"><path d="M425.4912,206.2319s38.9443,19.1024,52.2773,24.6783c10.4779,4.3809,31.4338,13.91,42.66,15.62,4.1345.63,12.6279.1092,16.7061-.8175,5.6383-1.2794,17.24-4.8677,21.3209-8.9646,3.0485-3.0579,5.3388-11.829,6.6368-15.9447,1.3855-4.39,1.4791-15.6326-.0374-19.9791-4.0845-11.7042-7.1673-13.6606-11.4483-18.4128-5.679-6.3092-16.3909-21.842-24.7657-23.218C500.8274,154.5819,425.4912,206.2319,425.4912,206.2319Z" fill="#b78974"/><polygon points="403.275 119.869 393.084 157.478 407.259 195.888 357.581 161.412 346.195 138.029 357.319 122.817 380.356 116.892 403.275 119.869" fill="#b78974"/><path d="M563.18,193.4013c7.9286,12.1722.8175,30.9969.8175,30.9969s-4.8864-18.7872-6.8272-21.4114c-2.88-3.9-8.45-12.8743-11.3734-16.74-2.568-3.398-14.9712-7.2609-16.0164-11.3859l6.771-12.815C536.5547,162.0394,553.96,179.2415,563.18,193.4013Z" fill="#856558"/><path d="M350.6106,146.8374s1.0516-8.8117,2.2872-11.4608c1.03-2.2092,4.2873-5.9785,6.097-7.61,2.0688-1.8659,6.693-5.2452,9.3609-6.0315,3.7568-1.1046,11.76-.3,15.6669-.0031,1.9034.1435,5.8287,1.9814,7.5449,1.1451,2.1467-1.0453,5.8224-6.2093,4.7054-8.3249-2.2185-4.1968-15.7075-3.2919-20.4566-3.3262-4.2655-.0312-11.3922,1.7536-15.4954,2.9112-3.2794.9268-9.8944,3.7038-12.0661,6.3248-2.15,2.593-4.1687,9.5294-3.9316,12.893C344.5822,137.0646,350.6106,146.8374,350.6106,146.8374Z" fill="#856558"/><path d="M387.4113,123.947s7.2452-16.5125,10.1-21.792c2.6928-4.9769,7.7945-15.3862,11.9788-19.19,3.0985-2.8176,10.8679-6.7429,14.99-7.4793,8.4155-1.4977,25.6987,1.6413,33.9862,3.7443,7.7695,1.9689,22.4692,8.6214,29.6927,12.0943,5.22,2.5149,15.5515,7.888,20.2256,11.311,5.5885,4.0938,16.3347,13.2175,20.1852,18.9713,2.9455,4.4027,5.9129,14.7651,7.5137,19.8169,1.532,4.8333,2.6959,17.2395,2.5149,22.3069-.2247,6.2717-9.0551,23.9138-11.7167,29.5927-.88,1.8816-3.8192,2.8176-5.3637,4.2-3.1578,2.827-3.8443.9923-8.0286,1.6631-18.3254,2.9362-56.396-2.4369-73.6606-9.2454-12.4967-4.9269-34.6289-21.4394-43.54-31.493-3.3418-3.7661-8.637-12.712-9.77-17.62C385.5672,136.7089,387.4113,123.947,387.4113,123.947Z" fill="#d3a08c"/><path d="M376.2313,149.3773c-.7083-6.8085,11.18-25.4272,11.18-25.4272s6.7491,19.2085,10.222,24.0855c2.7084,3.8,8.5527,11.1831,12.11,14.2035,5.7288,4.8645,19.0742,12.0567,25.7423,15.5328,5.2952,2.7583,16.0851,8.044,21.8233,9.6884,9.33,2.671,28.76,4.78,38.445,5.4137,8.9209.5866,27.2651-3.1265,35.7554-.3339,4.1531,1.3636,20.313,10.0785,20.313,10.0785s-12.5591,6.9333-15.1739,8.3312c-1.6319.8737-5.3825,1.3823-7.1766,1.8472-3.4948.8986-10.4,3.0984-13.9758,3.5946a141.1219,141.1219,0,0,1-22.4162.53c-8.0066-.6022-23.7609-3.9815-31.6334-5.5572-5.7569-1.1483-17.4455-2.9924-22.9123-5.1329-6.7429-2.64-18.7279-11.0146-25.059-14.5311-4.6836-2.5992-15.8448-5.6571-18.9339-10.038C389.1867,174.0837,378.6932,173.0415,376.2313,149.3773Z" fill="#3a1615"/><path d="M520.429,246.53s-44.7885-7.9786-59.21-12.5592c-13.9789-4.4432-41.2689-15.7137-53.8905-23.19-10.59-6.2718-29.8517-21.8451-38.8038-30.2917-6.278-5.9254-18.3535-18.547-22.7844-25.9545-2.3651-3.9565-6.7616-12.6715-6.4558-17.2676.3151-4.7491,8.9677-16.8059,8.9677-16.8059s.4181,13.436,1.7286,17.6764c1.3948,4.5182,6.1969,12.8556,9.1019,16.5875,4.1156,5.2951,14.1474,14.425,19.611,18.3129,5.9035,4.2061,19.2771,10.0629,25.6331,13.5451,7.1361,3.91,21.2585,12.0006,28.301,16.0788,5.0112,2.905,14.759,9.208,19.9449,11.7822,6.4278,3.1952,20.0416,7.8881,26.563,10.89C489.6724,230.1894,520.429,246.53,520.429,246.53Z" fill="#d3a08c"/><path d="M468.32,168.3673c-3.3855-5.395-6.4029-18.31-6.3467-24.6783.0374-4.3372,2.3184-13.489,5.4917-16.447,4.2811-3.9877,16.834-6.3186,22.6658-5.8287,5.6227.4712,15.8729,6.1407,20.6188,9.1924,4.487,2.8894,14.007,9.1861,15.9884,14.1411,2.9174,7.2952,2.3839,25.3023-2.69,31.2995-5.9629,7.0456-26.76,11.2549-35.7585,9.1955C481.9185,183.7909,471.7963,173.9058,468.32,168.3673Z" fill="#c39689"/><path d="M478.23,170.0055c-2.0219-3.22-3.8192-10.9241-3.788-14.7246.0218-2.5868,1.3823-8.0472,3.2763-9.81,2.5524-2.3808,10.0411-3.7693,13.52-3.476,3.3543.2808,9.47,3.6632,12.3,5.4855,2.6773,1.7223,8.3531,5.4792,9.5356,8.4341,1.7412,4.3528,1.4229,15.0959-1.6038,18.6686-3.5571,4.203-15.9634,6.7149-21.33,5.4886C486.34,179.2009,480.3022,173.3036,478.23,170.0055Z" fill="#c39689"/><rect x="55.1254" y="140.3063" width="21.842" height="64.4837" fill="#231f20"/><polygon points="192.286 140.306 171.539 140.306 152.969 140.306 120.911 140.306 101.931 140.306 81.127 140.306 81.127 152.397 101.931 152.397 101.931 204.79 120.911 204.79 120.911 152.397 152.969 152.397 152.969 204.79 171.539 204.79 171.539 152.397 192.286 152.397 192.286 140.306" fill="#231f20"/><polygon points="215.89 192.699 215.89 140.306 198.138 140.306 198.138 204.79 198.528 204.79 215.89 204.79 241.042 204.79 241.042 192.699 215.89 192.699" fill="#231f20"/><polygon points="300.847 136.534 300.847 124.443 266.927 124.443 249.364 124.443 245.463 124.443 245.463 204.79 249.364 204.79 266.927 204.79 300.847 204.79 300.847 192.699 266.927 192.699 266.927 170.266 297.226 170.266 297.226 158.175 266.927 158.175 266.927 136.534 300.847 136.534" fill="#231f20"/><polygon points="486.764 237.035 465.312 265.245 439.959 237.035 414.349 237.035 446.981 272.656 446.981 308.28 472.722 308.28 472.722 272.656 500.415 237.035 486.764 237.035" fill="#231f20"/><path d="M345.571,237.035H333.87L299.5466,308.28h16.3813l6.7875-12.0747,27.9676.128,5.8894,11.9467h19.8141Zm-18.7234,48.8823,10.2856-21.2905,9.7422,21.2905Z" fill="#231f20"/><polygon points="21.663 192.699 21.663 124.443 0 124.443 0 192.699 0 200.598 0 204.79 51.485 204.79 51.485 192.699 21.663 192.699" fill="#231f20"/><rect x="222.3447" y="222.2137" width="22.9871" height="86.0667" fill="#231f20"/><polygon points="317.747 237.035 296.816 237.035 275.105 237.035 254.302 237.035 254.302 249.126 275.105 249.126 275.105 308.28 296.816 308.28 296.816 249.126 317.747 249.126 317.747 237.035" fill="#231f20"/><polygon points="403.945 296.189 403.945 237.035 382.234 237.035 382.234 308.28 393.092 308.28 403.945 308.28 435.607 308.28 435.607 296.189 403.945 296.189" fill="#231f20"/><path d="M121.0766,90.3207a1.9039,1.9039,0,0,1,.7391-.6906,1.044,1.044,0,0,1,.7135-.1258c.1994.0516.3071.2211.3337.5015a2.2821,2.2821,0,0,1-.3956,1.1928q-.47,1.0313-1.3652,2.7447a20.1057,20.1057,0,0,1-2.3185,3.4285,17.9238,17.9238,0,0,1-3.4259,3.15,11.3083,11.3083,0,0,1-4.6814,1.9038,4.9484,4.9484,0,0,1-3.8-.84,11.9139,11.9139,0,0,1-3.1588-3.37,26.6741,26.6741,0,0,1-2.5284-5.078q-1.1114-2.913-1.9936-5.9061T97.5807,81.43q-.7276-2.8058-1.3663-4.8514a10.8254,10.8254,0,0,1-4.9052,1.1673,3.9741,3.9741,0,0,1-2.9073-.9973q-.5745,5.0212-.8484,8.9533-.2812,3.9321-.5121,7.1238-.2335,3.1948-.401,5.8126t-.4195,4.8192a2.2294,2.2294,0,0,1-1.1494,1.6282,6.89,6.89,0,0,1-2.251.9151,4.556,4.556,0,0,1-2.2249-.0392,1.5,1.5,0,0,1-1.1656-1.3068,49.2656,49.2656,0,0,1-.1249-8.4793q.266-5.785.923-13.0224.6521-7.2366,1.5341-14.945T83.48,53.9643q.8355-6.5325,1.4347-11c.3939-2.9726.6553-4.7021.7691-5.1833a4.2228,4.2228,0,0,1,1.9141-2.97,9.6708,9.6708,0,0,1,3.9874-1.179,19.1674,19.1674,0,0,1,2.33-.1083q1.09.0236.8009,1.8025-.3208,1.2652-.5066,2.5041c-.1243.83-.263,1.6579-.412,2.49a37.28,37.28,0,0,1,3.3281-4.9874,27.3546,27.3546,0,0,1,4.26-4.3336,24.9735,24.9735,0,0,1,5.1371-3.2362,20.1486,20.1486,0,0,1,6.1529-1.7318,6.2541,6.2541,0,0,1,5.7349,1.9218,12.8084,12.8084,0,0,1,2.9357,6.4739,28.7269,28.7269,0,0,1-.021,9.37A43.6113,43.6113,0,0,1,118.27,54.4329a45.4808,45.4808,0,0,1-6.1731,10.3259,35.3574,35.3574,0,0,1-9.4481,8.3547q.3992,1.83,1.291,5.1672.8865,3.3395,1.9672,6.9049,1.0812,3.5618,2.2921,6.7584a23.968,23.968,0,0,0,2.2592,4.7387,2.1168,2.1168,0,0,0,2.3486.88,8.5974,8.5974,0,0,0,3.0149-1.481,17.7241,17.7241,0,0,0,2.9864-2.77A24.8494,24.8494,0,0,0,121.0766,90.3207Zm-12.866-59.7049a10.9241,10.9241,0,0,0-4.921,2.075,22.45,22.45,0,0,0-4.3849,4.3109,36.041,36.041,0,0,0-3.7435,5.9259,60.6616,60.6616,0,0,0-2.9713,6.826q-.5023,2.8516-.94,5.9051-.4377,3.0559-.855,5.9769-.4224,2.9232-.8247,5.6691-.4025,2.7486-.6442,4.8614c.12,1.4763.7021,2.281,1.7381,2.4132a7.5706,7.5706,0,0,0,3.5624-.5413,20.0065,20.0065,0,0,0,3.9984-2.0437,35.6226,35.6226,0,0,0,3.05-2.1766,28.5137,28.5137,0,0,0,6.3188-7.0269,44.4184,44.4184,0,0,0,4.3155-8.6175,41.4862,41.4862,0,0,0,2.23-8.8077,29.4682,29.4682,0,0,0,.1388-7.7076,11.0616,11.0616,0,0,0-1.9692-5.35A4.27,4.27,0,0,0,108.2106,30.6158Z" fill="#231f20"/><path d="M144.8265,61.0165a.9419.9419,0,0,1,.38-.6273,1.5144,1.5144,0,0,1,.6938-.338,1.141,1.141,0,0,1,.6486.0567c.196.082.2773.2684.2437.562a21.3836,21.3836,0,0,1-.651,2.2717q-.6162,1.9233-1.7565,4.626-1.1458,2.7086-2.6756,5.78a43.6386,43.6386,0,0,1-3.414,5.7389,26.7191,26.7191,0,0,1-4.0712,4.6027,9.2965,9.2965,0,0,1-4.5172,2.3484,9.7667,9.7667,0,0,1-5.4274-.3794,8.8582,8.8582,0,0,1-3.7828-2.8734,11.3728,11.3728,0,0,1-2.055-4.6433,18.1486,18.1486,0,0,1-.2127-5.7887A18.4626,18.4626,0,0,1,123.3151,61.4a17.7768,17.7768,0,0,1,4.3889-3.32,16.7,16.7,0,0,1,4.9909-1.7451,4.5837,4.5837,0,0,1,2.4243.0907,2.9922,2.9922,0,0,1,1.3706.9682,2.8421,2.8421,0,0,1,.5372,1.4152,6.3283,6.3283,0,0,1,.0232,1.3346,7.8694,7.8694,0,0,1-.9059,2.577,12.7233,12.7233,0,0,1-2.2582,3.0286,18.4488,18.4488,0,0,1-3.67,2.8486A19.3086,19.3086,0,0,1,125.07,70.715c-.1137.4812-.2122.9572-.2959,1.4331s-.1593,1.0074-.2262,1.5919a9.02,9.02,0,0,0,.201,2.8578,9.5992,9.5992,0,0,0,1.1839,3.0267,7.0656,7.0656,0,0,0,2.1075,2.2613,3.8442,3.8442,0,0,0,2.9527.5579,6.4231,6.4231,0,0,0,3.23-1.8189,24.2678,24.2678,0,0,0,3.1372-3.7042,44.2517,44.2517,0,0,0,2.8591-4.6915q1.337-2.519,2.3451-4.814,1.0031-2.2929,1.6012-4.0384A14.4487,14.4487,0,0,0,144.8265,61.0165Zm-13.2491-.5128a5.1785,5.1785,0,0,0-.9232.4206,6.447,6.447,0,0,0-1.6431,1.3706,15.5412,15.5412,0,0,0-1.8788,2.6617,18.5866,18.5866,0,0,0-1.711,4.2288,21.9394,21.9394,0,0,0,2.7448-1.0442,14.2623,14.2623,0,0,0,2.536-1.4835,8.5228,8.5228,0,0,0,1.9331-1.982,5.4878,5.4878,0,0,0,.9457-2.5394c.1143-.9994-.1029-1.5363-.6465-1.614A4.523,4.523,0,0,0,131.5774,60.5037Z" fill="#231f20"/><path d="M172.2849,55.9151a9.2,9.2,0,0,1-2.0426,1.7857q-1.4253.9838-3.3549,2.1459-1.9223,1.1609-4.2283,2.5578-2.309,1.4-4.6927,3.1132.6872.9165,1.4993,1.8083a13.9777,13.9777,0,0,1,1.4893,1.939A9.1461,9.1461,0,0,1,162,71.5823a7.0845,7.0845,0,0,1,.201,2.8578,15.8061,15.8061,0,0,1-1.5679,5.5845,12.65,12.65,0,0,1-2.8378,3.6935,11.6933,11.6933,0,0,1-3.5945,2.1882,21.3676,21.3676,0,0,1-3.8176,1.0623,5.7751,5.7751,0,0,1-4.848-1.084q-1.9742-1.59-1.5215-5.5456a15.1428,15.1428,0,0,1,1.991-5.9069,23.4167,23.4167,0,0,1,4.76-5.6216,33.9835,33.9835,0,0,0-2.8709-2.8532,21.7544,21.7544,0,0,1-2.6017-2.685,11.2173,11.2173,0,0,1-1.7585-3.0047,7.7922,7.7922,0,0,1-.3856-3.7228,13.2546,13.2546,0,0,1,3.6344-8.0486,14.3535,14.3535,0,0,1,7.986-3.9938,8.4456,8.4456,0,0,1,4.3247.1027,3.95,3.95,0,0,1,2.1981,1.8116,5.4673,5.4673,0,0,1,.6054,2.7419,14.09,14.09,0,0,1-.3776,2.9152,11.8733,11.8733,0,0,1-.791,2.341q-.46.9438-.7294.9914c-.5938.1047-.9826.0418-1.1568-.1878a1.2925,1.2925,0,0,1-.1974-.9668,8.1166,8.1166,0,0,1,.2873-1.3572,8.6115,8.6115,0,0,0,.2978-1.4483,4.2759,4.2759,0,0,0-.7454-3.4412q-1.0077-1.1275-3.51-.69a5.0747,5.0747,0,0,0-2.2611,1.0036,7.7,7.7,0,0,0-1.6932,1.8084,9.3865,9.3865,0,0,0-1.0851,2.1771,10.7322,10.7322,0,0,0-.5114,2.205,4.1984,4.1984,0,0,0,.4909,2.5885,10.0413,10.0413,0,0,0,1.7532,2.2817q1.0987,1.1005,2.4516,2.2875T156.81,64.17q2.1819-1.5076,4.5779-2.9219,2.3988-1.4158,4.408-2.5473,2.0068-1.131,3.4146-1.9408a6.888,6.888,0,0,0,1.7173-1.2077,1.1665,1.1665,0,0,1,1.2378-.5207C172.5914,55.16,172.6312,55.4524,172.2849,55.9151ZM155.9534,76.2308a3.7846,3.7846,0,0,0-.3269-2.0993,7.5623,7.5623,0,0,0-1.12-1.7015,10.2512,10.2512,0,0,0-1.38-1.3112,7.6582,7.6582,0,0,1-1.1114-1.0114,16.2725,16.2725,0,0,0-3.7916,4.4667,12.411,12.411,0,0,0-1.4319,4.482q-.3022,2.6416.794,3.7425a3.0749,3.0749,0,0,0,2.8872.7876,8.917,8.917,0,0,0,1.5821-.4525,4.7227,4.7227,0,0,0,1.6625-1.1137,6.9092,6.9092,0,0,0,1.3893-2.1862A13.2166,13.2166,0,0,0,155.9534,76.2308Z" fill="#231f20"/><path d="M188.9648,53.2347c.0133-.1164.1317-.2538.3546-.4071a2.3878,2.3878,0,0,1,.6937-.338,1.2517,1.2517,0,0,1,.6638-.0328c.1944.0525.2772.2263.2436.52a35.5013,35.5013,0,0,1-.7474,3.4985q-.6515,2.6176-1.7082,6.1274-1.0615,3.508-2.5078,7.3889a64.4529,64.4529,0,0,1-3.1912,7.2094,30.8478,30.8478,0,0,1-3.7133,5.6627,7.1083,7.1083,0,0,1-4.0287,2.6937,5.1449,5.1449,0,0,1-4.4438-.9421,8.5278,8.5278,0,0,1-2.4892-4.2667,26.8131,26.8131,0,0,1-.8751-6.8793,85.9886,85.9886,0,0,1,.3444-8.7355q.4042-4.6864,1.084-9.8576t1.3539-10.2945a30.7392,30.7392,0,0,1-3.7823.9247c-.6586.1161-1.0882.0679-1.2985-.1454a.8243.8243,0,0,1-.1669-.8483,2.18,2.18,0,0,1,.641-.9881,2.1492,2.1492,0,0,1,1.1168-.5738l1.8312-.3228c.6237-.11,1.2955-.2557,2.021-.4431q.2228-1.947.4861-3.8641c.1753-1.2754.3257-2.5044.4609-3.686a9.7573,9.7573,0,0,1,1.7306-5.1694,6.3469,6.3469,0,0,1,4.074-1.9355,6.8046,6.8046,0,0,1,1.766-.1378.82.82,0,0,1,.7669.5614,3.1711,3.1711,0,0,1,.0123,1.4308q-.1513.9378-.4237,2.549c-.2755,1.3824-.5308,2.7588-.7761,4.1333s-.5055,2.7519-.781,4.1343q2.2608-.659,3.9428-1.1737c1.12-.3437,1.8267-.54,2.1261-.593.6536-.1152.9508.1076.8865.6693a1.1382,1.1382,0,0,1-1.0793,1.0159,17.3179,17.3179,0,0,0-2.1409.722q-1.6944.6447-4.0671,1.4906-1.5147,8.6234-2.3344,15.83-.8251,7.2112-.8943,12.3877a34.74,34.74,0,0,0,.6112,8.0315q.6855,2.8543,2.2026,2.5843,1.24-.133,2.6115-2.1859a35.688,35.688,0,0,0,2.72-5.0116q1.3428-2.9552,2.5318-6.4461,1.1913-3.49,2.1028-6.4994.909-3.0089,1.4676-5.1775C188.7288,54.3994,188.9312,53.5282,188.9648,53.2347Z" fill="#231f20"/><path d="M204.9229,49.2138c-.04.3517-.33.5738-.8636.668-.4191.0739-.6122-.0334-.5783-.3295q.02-.1746.0255-.6069a1.6974,1.6974,0,0,0-.2084-.8285,1.6768,1.6768,0,0,0-.7177-.65,2.2141,2.2141,0,0,0-1.3867-.1,9.5946,9.5946,0,0,0-3.9428,1.5579,10.3561,10.3561,0,0,0-2.6822,2.7612,14.5745,14.5745,0,0,0-1.66,3.4413,17.6069,17.6069,0,0,0-.7974,3.5074,20.1526,20.1526,0,0,0,.0679,5.9009q.466,2.4652,2.0728,2.1808a3.2352,3.2352,0,0,0,1.5823-.8393,11.7133,11.7133,0,0,0,1.5034-1.646,10.3777,10.3777,0,0,0,1.19-1.98,18.135,18.135,0,0,0,.7354-1.8552,5.4634,5.4634,0,0,0,.2158-1.1165l.1766-1.5435.1763-1.5409.1259-1.1007a2.9766,2.9766,0,0,1,.6156-1.5341,6.3863,6.3863,0,0,1,1.1836-1.1582,6.8239,6.8239,0,0,1,1.3129-.7917c.4324-.19.7968-.3414,1.1029-.4523.2461-.1.5225-.2087.8236-.3188a1.0239,1.0239,0,0,1,.7932-.0109,1.1993,1.1993,0,0,1,.538.639,3.48,3.48,0,0,1,.0778,1.6275c-.1144.9995-.2587,2.3464-.4186,4.0431-.1652,1.7-.2585,3.37-.27,5.011a18.0439,18.0439,0,0,0,.394,4.2048q.4172,1.7374,1.6645,1.5188,1.0778-.19,2.2923-2.0454a35.1872,35.1872,0,0,0,2.5047-4.6711q1.2828-2.8145,2.6463-6.2928,1.3583-3.4748,2.5272-6.79a1.2366,1.2366,0,0,1,.4545-.5115,1.7245,1.7245,0,0,1,.6889-.295.9258.9258,0,0,1,.6034.0672.28.28,0,0,1,.1293.4086q-1.4038,3.8733-2.6583,7.9361a60.8715,60.8715,0,0,1-2.8273,7.49,24.2292,24.2292,0,0,1-3.5934,5.768,8.1685,8.1685,0,0,1-4.8773,2.8457,5.339,5.339,0,0,1-3.1227-.2254,4.52,4.52,0,0,1-1.9634-1.5976,6.5389,6.5389,0,0,1-1-2.37,24.1528,24.1528,0,0,1-.4112-2.5158,11.3,11.3,0,0,1-3.2457,2.7292,10.129,10.129,0,0,1-2.8051,1.1862c-.5988.1056-1.3687.2116-2.315.3214a4.9761,4.9761,0,0,1-2.7082-.43,4.2762,4.2762,0,0,1-2.0478-2.3562,11.63,11.63,0,0,1-.3278-5.5527,15.4305,15.4305,0,0,1,2.208-6.6915,19.7033,19.7033,0,0,1,3.9362-4.5343,16.9979,16.9979,0,0,1,4.4232-2.7235,19.4009,19.4009,0,0,1,3.7676-1.18,6.1552,6.1552,0,0,1,2.8886.0064,2.6408,2.6408,0,0,1,1.9676,2.3306A5.8108,5.8108,0,0,1,204.9229,49.2138Z" fill="#231f20"/><path d="M245.1528,43.4153a.7385.7385,0,0,1,.3148-.4869,1.9625,1.9625,0,0,1,.6539-.331,1.0353,1.0353,0,0,1,.6139-.0239c.1695.0569.2373.2333.2037.5269a31.9448,31.9448,0,0,1-.6473,3.3495q-.5164,2.2071-1.3977,4.952-.886,2.7446-2.0918,5.6768a40.8165,40.8165,0,0,1-2.7252,5.4439,22.1558,22.1558,0,0,1-3.2426,4.2409,6.8355,6.8355,0,0,1-3.6091,2.0594,3.15,3.15,0,0,1-2.7032-.473,4.21,4.21,0,0,1-1.2847-2.1461,9.34,9.34,0,0,1-.2557-3.106,32.4583,32.4583,0,0,1,.383-3.3476,26.09,26.09,0,0,1-4.2749,4.0759,12.9973,12.9973,0,0,1-5.76,2.5278,3.3292,3.3292,0,0,1-3.2367-.81A6.4293,6.4293,0,0,1,214.62,62.35a19.8331,19.8331,0,0,1-.2639-4.5722,48.5391,48.5391,0,0,1,.4846-5.0043q.3669-2.4372.7634-4.3641c.2642-1.2837.4216-2.1891.4821-2.7179a3.1233,3.1233,0,0,1,.4258-1.4139,1.6479,1.6479,0,0,1,.8137-.617,4.1482,4.1482,0,0,1,1.1626-.205,10.8433,10.8433,0,0,0,1.377-.156,3.7453,3.7453,0,0,1,1.6663-.0359.8844.8844,0,0,1,.6229.6662,3.6738,3.6738,0,0,1,.0334,1.2461l-.1966,1.718q-.0708.6187-.3469,2.2628-.2765,1.6478-.598,3.6879-.3216,2.0425-.4785,4.1825a25.6093,25.6093,0,0,0-.0345,3.7621,4.8968,4.8968,0,0,0,.6856,2.4253c.3734.5391.9686.5928,1.7756.163a11.6957,11.6957,0,0,0,3.96-3.2468,12.2955,12.2955,0,0,0,1.97-4.1877,31.1357,31.1357,0,0,0,.8592-5.2438q.2429-2.8916.6461-6.4162a2.3646,2.3646,0,0,1,.62-1.1877,7.01,7.01,0,0,1,1.2735-1.1741,16.1378,16.1378,0,0,1,1.3679-.8882,3.9858,3.9858,0,0,1,.8334-.4048l.5838-.1029a4.3322,4.3322,0,0,1,.8381-.061,1.0494,1.0494,0,0,1,.7133.261.8669.8669,0,0,1,.2185.7821l-.3428,2.9958q-.2823,2.4671-.6648,5.4253-.3828,2.9607-.7,5.7339l-.4687,4.0965a21.2447,21.2447,0,0,0-.1347,4.2533c.1,1.1327.542,1.63,1.3154,1.4937.5338-.0942,1.2879-.9163,2.2525-2.4673a42.3093,42.3093,0,0,0,2.88-5.6869,74.2013,74.2013,0,0,0,2.6176-7.1529A37.7689,37.7689,0,0,0,245.1528,43.4153Z" fill="#231f20"/><path d="M269.8619,38.6276c.5462-.6715.9722-.8482,1.2877-.5295s.2919.7394-.0564,1.2619a19.8723,19.8723,0,0,0-2.1161,5.1209q-.9465,3.2721-1.9487,7.0746-1.0072,3.8034-2.209,7.8123a47.2948,47.2948,0,0,1-2.8572,7.3662,22.8464,22.8464,0,0,1-3.9378,5.7444,9.5444,9.5444,0,0,1-5.3263,2.925,2.619,2.619,0,0,1-3.24-1.8907,16.0815,16.0815,0,0,1-.6665-6.0532,59.721,59.721,0,0,1,.9771-8.1554q.8135-4.4164,1.6062-8.2688.7851-3.85,1.2545-6.392.4671-2.5442-.072-2.4467a41.6439,41.6439,0,0,0-4.1415,1.03,46.5186,46.5186,0,0,1-4.95,1.1752,8.52,8.52,0,0,1-1.9808.0913,5.22,5.22,0,0,1-2.04-.5478,3.2643,3.2643,0,0,1-1.48-1.5935,5.4774,5.4774,0,0,1-.3157-2.9665,8.6662,8.6662,0,0,1,.9815-3.2374A9.5388,9.5388,0,0,1,240.43,33.803a7.9327,7.9327,0,0,1,2.1368-1.4552,8.6656,8.6656,0,0,1,2.0012-.6553,4.1243,4.1243,0,0,1,3.0524.4982q1.2639.8109.9991,3.1038-.1311,1.1463-.302,2.2548c-.1139.7391-.2344,1.4074-.3564,2.0041q-.201.9874-.3116,1.954a20.9214,20.9214,0,0,0,3.2037-.8673q1.779-.6148,3.4787-1.305c1.1328-.4575,2.1691-.8832,3.1241-1.2821a11.3213,11.3213,0,0,1,2.1362-.7238c.953-.168,1.4632-.0125,1.5259.4649a5.8321,5.8321,0,0,1,.0132,1.4232q-.03.2619-.6218,2.7426-.5915,2.4768-1.3438,6.0184-.7575,3.5438-1.62,7.6242Q256.69,59.68,256.1247,63.06a50.6661,50.6661,0,0,0-.67,5.4682q-.1071,2.09.5367,1.8045a7.6857,7.6857,0,0,0,3.1665-3.1912,33.1172,33.1172,0,0,0,2.5456-5.4122q1.14-3.046,2.1526-6.55,1.0091-3.4989,1.9483-6.73.9417-3.23,1.9424-5.8662A13.8194,13.8194,0,0,1,269.8619,38.6276Zm-24.4276,3.0968a15.0515,15.0515,0,0,0,.3335-3.6834,7.5528,7.5528,0,0,0-.4162-2.4728,1.2619,1.2619,0,0,0-1.56-.89,2.519,2.519,0,0,0-1.458,1.2487,5.9345,5.9345,0,0,0-.9112,2.6225,3.1016,3.1016,0,0,0,.76,2.5411Q243.1115,42.1352,245.4343,41.7244Z" fill="#231f20"/><path d="M284.5274,35.1792c-.04.3517-.33.5738-.8635.668-.4192.0739-.6122-.0334-.5784-.33q.02-.1746.0255-.6069a1.6984,1.6984,0,0,0-.2083-.8285,1.6779,1.6779,0,0,0-.7177-.6495,2.2145,2.2145,0,0,0-1.3868-.1,9.5946,9.5946,0,0,0-3.9428,1.5579,10.3561,10.3561,0,0,0-2.6822,2.7612,14.5784,14.5784,0,0,0-1.66,3.4413,17.607,17.607,0,0,0-.7973,3.5073,20.15,20.15,0,0,0,.0679,5.901q.4659,2.4653,2.0727,2.1808a3.2348,3.2348,0,0,0,1.5823-.8393,11.72,11.72,0,0,0,1.5035-1.646,10.3823,10.3823,0,0,0,1.19-1.98,18.0889,18.0889,0,0,0,.7354-1.8552,5.4565,5.4565,0,0,0,.2158-1.1165l.1766-1.5435.1763-1.5409.126-1.1007a2.9756,2.9756,0,0,1,.6155-1.5341,6.3838,6.3838,0,0,1,1.1837-1.1582,6.8292,6.8292,0,0,1,1.3128-.7918c.4324-.19.7968-.3413,1.1029-.4522.2461-.1.5225-.2087.8236-.3188a1.0239,1.0239,0,0,1,.7932-.0109,1.1985,1.1985,0,0,1,.538.639,3.4791,3.4791,0,0,1,.0778,1.6275c-.1143,1-.2587,2.3464-.4186,4.0431-.1652,1.7-.2585,3.37-.27,5.011a18.0439,18.0439,0,0,0,.394,4.2048q.4173,1.7374,1.6645,1.5188,1.0778-.19,2.2923-2.0454a35.1755,35.1755,0,0,0,2.5047-4.6711q1.2828-2.8144,2.6463-6.2928,1.3584-3.4747,2.5272-6.79a1.2373,1.2373,0,0,1,.4545-.5115,1.7245,1.7245,0,0,1,.6889-.295.9262.9262,0,0,1,.6035.0672.28.28,0,0,1,.1292.4086q-1.4038,3.8733-2.6583,7.9361a60.8554,60.8554,0,0,1-2.8273,7.49,24.226,24.226,0,0,1-3.5934,5.768,8.1685,8.1685,0,0,1-4.8772,2.8457,5.3388,5.3388,0,0,1-3.1227-.2254,4.52,4.52,0,0,1-1.9635-1.5976,6.5389,6.5389,0,0,1-1-2.37,24.1528,24.1528,0,0,1-.4112-2.5158,11.2989,11.2989,0,0,1-3.2457,2.7292,10.1278,10.1278,0,0,1-2.8051,1.1862c-.5987.1056-1.3687.2116-2.315.3214a4.9761,4.9761,0,0,1-2.7082-.43A4.2762,4.2762,0,0,1,265.65,52.49a11.6293,11.6293,0,0,1-.3277-5.5527,15.4292,15.4292,0,0,1,2.2079-6.6915,19.7012,19.7012,0,0,1,3.9362-4.5343,16.9984,16.9984,0,0,1,4.4233-2.7235,19.4,19.4,0,0,1,3.7675-1.18,6.1552,6.1552,0,0,1,2.8886.0064,2.64,2.64,0,0,1,1.9676,2.3306A5.8011,5.8011,0,0,1,284.5274,35.1792Z" fill="#231f20"/><path d="M325.5505,29.3276a1.2662,1.2662,0,0,1,.45-.8578,2.1431,2.1431,0,0,1,.7937-.4424.9.9,0,0,1,.7333.0864c.2192.1349.3054.4073.2582.82a47.9869,47.9869,0,0,1-1.8805,8.4014,61.81,61.81,0,0,1-3.6375,9.1872,35.6908,35.6908,0,0,1-4.9374,7.6016,10.2462,10.2462,0,0,1-5.8162,3.7452,2.2844,2.2844,0,0,1-2.7467-1.5884,13.8873,13.8873,0,0,1-.8324-4.9877,52.7959,52.7959,0,0,1,.3769-6.7555q.4235-3.7.9162-6.8529.4922-3.1474.7792-5.2719.2868-2.1219-.0723-2.06c-.2345.0414-.6558.3909-1.2534,1.0416-.6029.6542-1.2437,1.4267-1.9334,2.3268q-1.0266,1.3449-1.9735,2.7205-.9425,1.3785-1.3844,2.1432a8.5237,8.5237,0,0,0-.7562,2.4216q-.3214,1.6558-.5827,3.5539-.2621,1.9056-.4386,3.8333-.177,1.9315-.3179,3.1625a2.5846,2.5846,0,0,1-1.3446,2.1808,10.9827,10.9827,0,0,1-3.039.9226,2.5064,2.5064,0,0,1-1.8-.33c-.5434-.3356-.8088-1.05-.8058-2.1438-.0144-.3445.0129-1.0956.0877-2.2616q.1116-1.7452.2839-4.0193t.3849-4.9024q.2124-2.6258.39-4.9453c.1181-1.5456.2378-2.9327.3441-4.1614q.1666-1.84.2472-2.5451a5.0856,5.0856,0,0,1,1.6705-3.49,6.83,6.83,0,0,1,3.4839-1.7349,3.2154,3.2154,0,0,1,1.8318.0564c.3846.1851.54.6213.4613,1.31q-.0591.5162-.2139,2.2542T303,31.3175q-.18,2.278-.29,4.7989.18-.0316.97-1.5519a27.5334,27.5334,0,0,1,2.0894-3.3484,22.8906,22.8906,0,0,1,3.1618-3.535,8.3352,8.3352,0,0,1,4.2728-2.1342q2.59-.4566,3.1388,2.3919a28.6807,28.6807,0,0,1-.0571,8.1469q-.354,3.0933-.9426,6.3147T314.3261,48.25q-.433,2.6312-.53,4.2486c-.07,1.0809.1074,1.5827.5265,1.5088q1.07-.1887,2.7966-2.65a42.5007,42.5007,0,0,0,3.4543-6.0906,67.3872,67.3872,0,0,0,3.1369-7.8891A40.5874,40.5874,0,0,0,325.5505,29.3276Z" fill="#231f20"/><path d="M344.242,25.8587c.0133-.1164.1317-.2538.3546-.4071a2.3871,2.3871,0,0,1,.6938-.338,1.2513,1.2513,0,0,1,.6637-.0328c.1945.0525.2772.2263.2437.52a35.5431,35.5431,0,0,1-.7475,3.4985q-.6515,2.6177-1.7082,6.1274-1.0614,3.5081-2.5077,7.3889a64.49,64.49,0,0,1-3.1912,7.2094,30.8531,30.8531,0,0,1-3.7134,5.6627,7.108,7.108,0,0,1-4.0287,2.6937,5.1449,5.1449,0,0,1-4.4438-.9421,8.5278,8.5278,0,0,1-2.4892-4.2667,26.8131,26.8131,0,0,1-.8751-6.8793,86.0176,86.0176,0,0,1,.3444-8.7355q.4042-4.6865,1.084-9.8576t1.3539-10.2945a30.7348,30.7348,0,0,1-3.7823.9247c-.6586.1161-1.0882.0679-1.2985-.1454a.8245.8245,0,0,1-.1669-.8483,2.18,2.18,0,0,1,.6411-.9882,2.1491,2.1491,0,0,1,1.1167-.5737l1.8312-.3228c.6237-.11,1.2955-.2557,2.021-.4431q.2227-1.947.4861-3.8641c.1753-1.2754.3257-2.5044.4609-3.686a9.7573,9.7573,0,0,1,1.7306-5.1694,6.3467,6.3467,0,0,1,4.074-1.9355,6.81,6.81,0,0,1,1.766-.1379.82.82,0,0,1,.7669.5615,3.1682,3.1682,0,0,1,.0123,1.4308q-.1513.9378-.4237,2.549c-.2755,1.3824-.5307,2.7587-.776,4.1333s-.5056,2.7519-.7811,4.1343q2.2608-.6589,3.9428-1.1737c1.12-.3437,1.8267-.54,2.1261-.593.6537-.1152.9508.1076.8866.6693a1.1384,1.1384,0,0,1-1.0794,1.0159,17.3053,17.3053,0,0,0-2.1409.722q-1.6944.6447-4.067,1.4906-1.5149,8.6233-2.3345,15.83-.8252,7.2113-.8943,12.3877a34.74,34.74,0,0,0,.6112,8.0315q.6855,2.8544,2.2026,2.5843,1.24-.133,2.6115-2.186a35.67,35.67,0,0,0,2.72-5.0115q1.3428-2.9552,2.5318-6.4461,1.1915-3.49,2.1028-6.4994.909-3.0088,1.4676-5.1775C344.006,27.0234,344.2084,26.1522,344.242,25.8587Z" fill="#231f20"/></svg>